<?xml version="1.0" encoding="UTF-8" standalone="no"?>
<!-- Created with Inkscape (http://www.inkscape.org/) -->
<svg
   xmlns:dc="http://purl.org/dc/elements/1.1/"
   xmlns:cc="http://web.resource.org/cc/"
   xmlns:rdf="http://www.w3.org/1999/02/22-rdf-syntax-ns#"
   xmlns:svg="http://www.w3.org/2000/svg"
   xmlns="http://www.w3.org/2000/svg"
   xmlns:sodipodi="http://sodipodi.sourceforge.net/DTD/sodipodi-0.dtd"
   xmlns:inkscape="http://www.inkscape.org/namespaces/inkscape"
   version="1.0"
   width="513"
   height="278"
   id="svg1890"
   sodipodi:version="0.32"
   inkscape:version="0.44"
   sodipodi:docname="Cats-cradle.svg"
   sodipodi:docbase="C:\Documents and Settings\foo\바탕 화면">
  <metadata
     id="metadata1876">
    <rdf:RDF>
      <cc:Work
         rdf:about="">
        <dc:format>image/svg+xml</dc:format>
        <dc:type
           rdf:resource="http://purl.org/dc/dcmitype/StillImage" />
      </cc:Work>
    </rdf:RDF>
  </metadata>
  <sodipodi:namedview
     inkscape:window-height="977"
     inkscape:window-width="1280"
     inkscape:pageshadow="2"
     inkscape:pageopacity="0.0"
     guidetolerance="10.0"
     gridtolerance="10.0"
     objecttolerance="10.0"
     borderopacity="1.0"
     bordercolor="#666666"
     pagecolor="#ffffff"
     id="base"
     inkscape:zoom="5.6568542"
     inkscape:cx="477.44905"
     inkscape:cy="205.82487"
     inkscape:window-x="-4"
     inkscape:window-y="-4"
     inkscape:current-layer="svg1890"
     showguides="false" />
  <defs
     id="defs1893" />
  <path
     d="M 456.1755,274.71146 C 453.60747,271.61717 446.01273,252.98855 443.90765,244.62046 C 436.07222,232.06157 429.0341,213.31449 420.07619,201.75924 L 417.37929,198.74088 C 313.94179,203.43189 210.5718,209.17205 107.06496,212.20801 C 86.598574,211.96871 86.048653,212.08224 86.015313,216.55369 C 82.032272,226.91396 77.012783,236.12403 75.928181,247.35582 C 75.465629,252.93512 75.067563,258.2875 75.043589,259.25 C 75.011891,260.52262 74.172231,261 71.965557,261 L 68.931114,261 L 69.594388,256 C 70.299624,250.68367 69.750566,250.01077 66.84959,252.63612 C 65.175482,254.15117 64.995019,254.15059 64.410898,252.6284 C 64.063957,251.72429 64.504575,249.87887 65.390049,248.52746 C 67.459318,245.36936 67.418476,245 65,245 C 61.583485,245 62.697824,241.49157 67.75,236.34178 C 75.383769,228.56051 84.085449,213.68545 82.141044,211.74104 C 81.58233,211.18233 78.630717,210.68914 75.581903,210.64507 C 71.184785,210.58151 69.727858,210.97177 68.535737,212.53247 C 67.053497,214.47299 67.024343,214.46974 66.41172,212.29557 C 65.921712,210.55655 64.809829,209.96617 61.145285,209.49921 C 44.350112,207.35908 38.739102,205.80042 36.015316,202.51845 C 35.322203,201.6833 34.351128,201 33.857371,201 C 32.732992,201 33.920866,220.13838 35.126656,221.45 C 37.238798,223.74753 34.151308,238.10894 29.929142,245.62616 C 27.836527,249.35188 27.446873,254.41497 28.948748,258.3652 C 29.697233,260.33386 29.463052,261.4129 27.839312,263.47715 C 25.224919,266.80081 24.136398,266.40005 22.374068,261.465 C 20.267363,255.56559 20.15098,247.61258 22.138366,245.35835 C 24.685649,242.46904 29,229.36455 29,224.51669 C 28.502981,217.68349 26.774742,211.29981 27.774491,204.42949 C 28.917435,197.88237 28.1488,196.13304 23.0635,193.70779 C 19.574146,192.04367 19.311667,188.29341 22.36921,183.78787 C 24.343504,180.87858 24.722157,179.34742 24.280895,176.05756 C 23.899953,173.21743 24.186825,171.42355 25.213217,170.22756 C 28.094905,166.86969 28.104404,166.10547 25.282696,164.63794 C 19.788601,160.5324 16.099461,154.43668 11.647052,149.26804 C 5.1942025,141.93279 3.7640937,138.42529 5.1712787,133.3855 C 6.3426417,119.97316 2.7390554,106.58784 5.1647907,93.081495 C 6.3832482,89.856806 8.8962914,88.070541 12.269052,88.031803 C 14.805608,88.00267 14.973533,87.769103 14.269052,85.25 C 13.846073,83.7375 13.57994,78.675 13.677644,74 C 13.856449,65.444415 17.454691,50.23817 22.09507,38.427776 C 23.954279,33.695837 24.407492,33.273662 28.850566,32.134937 C 43.668526,27.922219 38.048745,49.902608 36.029917,57.833938 C 34.851592,61.865255 33.137869,67.934222 35.967295,71.312239 C 37.172509,69.897149 42.710473,54.704208 43.919972,49.494737 C 46.625752,37.50707 57.145795,29.878281 63,19.59621 L 70.15488,11.5 L 72.466657,14.377485 C 75.118041,17.67768 76.284527,17.310006 78.592323,12.446686 C 81.099406,7.163401 84.501167,6.7879868 88.667965,11.33475 C 91.602413,14.536787 92,15.629241 92,20.490218 C 92,24.286527 90.730953,27.379477 89.570403,31.046118 C 85.578285,43.658814 77.562541,53.180901 74.278338,64.94347 C 83.079221,69.436466 93.98317,68.706548 103.2684,72.503649 C 106.9795,74.690254 111.56861,74.700381 113.96987,72.527265 C 118.24628,68.657165 124.35902,71.545102 125.66005,78.050241 C 126.05876,80.043786 127.12432,81.0269 129.84742,81.913621 C 160.67791,90.63359 192.57946,94.783625 223.85422,101.66422 C 231.0532,103.42593 232.27648,103.27069 257,97.458037 C 313.58707,85.595516 370.30065,73.630237 427.33608,63.982779 L 435.17217,62.73127 L 434.52188,59.264917 C 434.16422,57.358422 433.26736,54.381386 432.52886,52.649281 C 427.1269,43.875547 426.48414,34.033514 423.85788,24.455053 C 421.82738,17.466861 421.80388,16.948265 423.40683,14.501849 C 424.33692,13.08236 426.6812,11.165934 428.61635,10.243124 C 433.86006,7.7425738 436.76557,9.7292369 439.65032,17.787674 C 443.01855,26.566708 447.55545,34.807472 451.16658,43.487746 C 454.45988,51.662383 457.68953,56 460.48283,56 C 461.82879,56 462.03808,54.371712 461.92884,44.75 C 462.23553,36.129983 460.27469,27.750321 459.5102,19.221233 L 458.85753,10.942466 L 462.2499,7.5501022 C 465.79649,4.0035069 472.31548,1.9154757 474.14129,3.7412879 C 474.68683,4.2868306 475.73368,7.3807174 476.46762,10.616592 C 478.17373,18.138722 477.07523,24.218139 479.81663,25.523495 C 482.19093,26.654048 486.55937,33.451036 488.5572,40 C 492.27506,50.020702 499.54215,58.312435 501,69.17187 C 501,72.670894 501.3611,73.252932 504.2916,74.477372 C 508.46589,76.221503 506.70333,77.524207 507.47568,78.686565 C 508.34599,79.996365 508.01359,85.274414 508.94913,90.240955 C 509.79638,94.738793 509.84188,98.274079 509.11081,102.80479 C 508.07905,109.19903 503.96481,118.95439 501.40329,121.08027 C 500.63148,121.72081 500,123.28823 500,124.56343 C 499.98336,126.78107 498.32216,127.95595 498,130.07889 C 498,132.5959 493.99151,138.94182 489.67505,143.25828 C 486.10852,146.82481 485.42695,148.68631 483.96595,158.85101 C 483.23619,163.92824 483.35896,165.79347 484.57808,168.15099 C 486.40901,171.69162 485.69903,174.49588 482.42924,176.63832 L 480.01016,178.22336 C 481.73634,180.36812 483.77013,182.33862 484.98469,184.82673 C 484.95222,186.25414 483.17124,188.2302 480.89395,189.36555 C 477.56423,191.0256 477.38512,193.70081 480.41567,196.50942 C 484.15391,201.03245 485.62397,207.17016 488.1401,212.50232 C 492.97589,222.26315 500.16041,227.73971 503.07735,238.5229 C 504.01938,242.67623 503.94702,244.19104 502.65933,247.2729 C 501.00223,251.23892 499,252.24534 499,249.11227 C 497.27777,238.95185 489.51699,231.6798 485.41007,222.64226 C 484.25574,219.83043 483.00621,218.17669 482.25199,218.46261 C 480.13802,219.26397 478.13601,214.82253 477.41056,207.72189 C 476.64377,200.21672 475.77617,198.98761 473.01139,201.48969 C 469.04608,205.07825 466.46762,202.10682 468.41308,196.19059 C 469.16156,193.9144 469.08852,193.88966 463.33624,194.47104 C 452.57002,195.41938 441.80318,196.46424 431,196.875 C 427.26926,196.95272 425,197.42868 425,198.13344 C 433.31256,215.7534 444.1413,231.78878 452.95562,249.159 C 455.41633,254.32464 455.31063,260.12768 456.97541,265.59477 C 459.83108,274.13142 459.43553,278.63956 456.1755,274.71146 z M 402.07884,192.85698 C 408.96175,192.94267 414.13477,192.59096 414.49195,192.01302 C 414.82877,191.46804 414.44809,189.55467 413.64599,187.76107 C 412.08461,183.95505 411.1902,180.00328 409.13302,176.41047 C 406.99996,172.95732 403.20596,171.87159 386.5,169.9336 C 358.36284,164.79549 330.38652,158.04957 302.5,151.50747 C 293.97506,147.99202 284.30125,148.15686 275.76393,144.87366 C 273.03973,143.41571 264.92297,144.36555 253.5,147.47903 C 204.57442,159.35535 154.75155,167.15293 105.5,177.62459 C 93.738784,180.25644 93.648216,180.30205 91.134286,184.85931 C 89.23029,188.31088 88.742037,190.7113 88.697787,196.83794 L 88.642448,204.5 C 193.15711,207.89682 297.54975,195.32383 402.07884,192.85698 z M 83.980539,203.52345 C 85.779144,201.35626 84.69494,191.28252 82.119828,186.23488 C 79.850288,181.78622 77.859993,181.03219 74.704265,183.42549 C 72.433889,185.14734 73.351815,190 75.947893,190 C 76.899985,190 78.201202,191.14617 78.839485,192.54705 C 80.262954,195.67123 80.364143,201 79,201 C 78.45,201 78,200.16974 78,199.15499 C 78,197.09543 74.69807,193.63526 73.692387,194.64095 C 73.337467,194.99587 72.849115,194.65935 72.607161,193.89313 C 70.432098,187.00513 68.50437,183 67.364142,183 C 65.628659,183 65.695254,184.60153 67.855728,194.82198 C 68.823267,199.39906 70.264039,203.55467 71.057445,204.05666 C 73.439769,205.56397 82.60076,205.18598 83.980539,203.52345 z M 65.262443,202.75 C 66.007638,200.79481 64.404294,190.89715 62.67084,186.75168 L 61.103457,183.00336 C 51.833593,184.27258 41.767938,182.37533 32.681779,184.96154 C 32.231757,185.38774 32.006757,187.4671 32.181779,189.58235 C 32.472921,193.101 32.978322,193.6966 38.121126,196.58172 C 43.425876,199.96217 49.508176,200.93625 55.5,202.37522 C 63.141854,204.23113 64.675492,204.29 65.262443,202.75 z M 472.37415,187.13443 C 472.56628,186.78549 473.01475,185.2805 473.37075,183.79001 C 474.35842,179.65483 471.68306,178.87753 454.64665,178.34991 C 442.51761,178.23482 430.57465,176.19659 418.59701,174.53584 L 413.69402,173.72703 C 414.14645,178.28515 415.75075,182.51596 417.69332,186.63282 L 420.5,192.18935 L 428.5,191.58946 C 442.60222,188.58776 458.81786,192.83497 472.37415,187.13443 z M 29,186.5 C 29,185.675 28.55,185 28,185 C 27.45,185 27,185.675 27,186.5 C 27,187.325 27.45,188 28,188 C 28.55,188 29,187.325 29,186.5 z M 58.647818,176.76083 C 58.935817,176.29483 57.955941,174.31995 56.470315,172.37219 C 54.404986,169.66441 54.045624,168.5565 54.943615,167.66541 C 55.839865,166.77605 57.192462,167.7449 60.653953,171.75568 L 65.189855,177.01136 C 73.103733,175.92127 82.128013,177.83095 89.615937,174.51599 C 94.897244,171.05555 97.906446,157.60666 97.972905,137.16659 C 97.9954,130.24784 98.519473,127.53171 101.06008,121.16659 C 102.74312,116.94996 105.01631,111.97247 106.11162,110.10549 C 108.51578,106.00752 108.13754,104.71396 103.91994,102.60995 C 98.637211,99.974575 97.306837,100.48909 94.507964,106.25 C 92.057956,112.04232 87.324727,116.56723 85.204489,122.5 C 84.001024,126.88846 81.08644,126.82541 76.022095,122.30137 C 69.881077,116.81553 64.014618,103.2903 63.415748,93.237223 C 63.074414,87.507335 62.515592,86.016637 60.690983,85.968728 C 56.507332,83.118145 50.558618,83.401594 46.456195,80.963645 C 44.884409,79.659179 44.869856,79.735553 44.35324,92 C 44.772219,96.606925 41.32452,102.69424 44.917413,106.42526 C 47.166582,108.46073 47.659283,111.47451 45.91874,112.55022 C 44.214257,113.60365 39.089638,107.99473 38.400539,104.32152 C 38.057137,102.49103 36.476534,99.357976 34.888086,97.359175 C 30.166905,89.948807 31.938679,80.465197 30.858057,71.977807 C 29.136108,62.587789 33.616932,53.90314 34.285219,44.583773 C 36.309743,39.153174 30.028073,30.80378 27.757718,39.573503 C 21.590625,57.95427 15.037267,77.394294 21.574168,96.523266 C 25.51225,105.21883 21.093472,117.09472 27.165691,124.77281 C 32.825142,131.19246 36.916956,138.91901 43.153808,144.83799 C 48.255747,148.97138 50.5772,155.9262 46.308136,154.288 C 37.551675,147.95791 31.54445,138.93101 24.752595,130.73515 C 20.499137,125.70147 19.026547,120.08099 18.956628,108.61351 C 18.922868,103.07652 18.404343,100.61351 16.616959,97.5 C 12.799274,90.84984 11.589343,92.110225 10.85714,103.5 C 9.7300584,114.21064 11.875854,124.92854 11.257054,135.6292 C 12.1104,145.17934 23.008909,154.13997 30.218528,160.15561 C 33.224137,162.29579 33.250573,162.39408 32.626503,169.10882 C 32.084386,174.9418 32.24232,176.03898 33.747753,176.89823 C 35.845045,178.09529 57.898284,177.9736 58.647818,176.76083 z M 65.782924,156.22642 C 62.222553,151.80504 60.615396,145.91552 56.481584,142 C 54.753631,142 46,132.57594 46,130.71565 C 46,128.20798 46.740758,128.55428 50.886324,133 C 54.441482,136.81256 57,138.09273 57,136.05902 C 57,135.54148 56.584621,134.86132 56.076937,134.54755 C 54.25234,131.46654 53.573172,127.79711 52.006198,124.51216 C 49.979648,120.5372 50.274104,117.78422 52.629149,118.68793 C 54.838558,119.53576 58.50057,127.48794 61.061934,137 C 62.178108,143.94217 66.59955,149.58939 69,155.98499 C 69,157.77877 67.23173,157.91147 65.782924,156.22642 z M 65.67589,133.59777 C 65.111271,132.12639 65.757672,131 67.166667,131 C 67.625,131 68,131.9 68,133 C 68,135.29292 66.476725,135.68471 65.67589,133.59777 z M 61.541921,129.13208 C 61.215851,128.10473 61.432143,125.99358 62.02257,124.44064 C 62.652429,122.78398 62.817465,119.3872 62.421914,116.22132 C 61.771145,111.01274 61.816854,110.86868 63.739327,112.06928 C 64.843003,112.75854 65.539359,114.04549 65.301269,114.95595 C 65.064972,115.85955 65.543899,118.55011 66.36555,120.93497 C 67.778575,125.0363 67.744796,125.42617 65.741672,128.13554 C 63.267749,131.4817 62.356303,131.69797 61.541921,129.13208 z M 50,109 C 50,108.45 50.45,108 51,108 C 51.55,108 52,108.45 52,109 C 52,109.55 51.55,110 51,110 C 50.45,110 50,109.55 50,109 z M 104.76962,172.87087 C 129.47721,167.44943 214.58738,155.80711 257.84337,141.5968 C 259.84073,140.94063 258.21415,139 255.37524,139 C 249.68138,137.29855 243.87853,136.26971 238.04226,135.10369 C 193.6092,134.43435 147.26053,134.13622 102.78301,136.63411 C 102.27041,136.95091 102.14146,139.92744 102.492,143.35149 C 103.17156,149.98952 101.31132,161.92581 98.577547,168.46865 C 95.752016,175.23109 96.643679,175.86502 104.76962,172.87087 z M 475.95769,172.07906 L 480.19131,150.5 L 478.11035,153.75 C 475.50635,157.81689 473.35749,157.90415 472.49517,153.97801 C 471.94655,151.48015 472.39369,150.30944 475.0733,147.22801 C 476.85633,145.1776 480.33038,142.05036 482.79342,140.27857 C 488.64211,136.07132 489.36287,134.93299 492.50886,124.93447 C 493.96849,120.29551 495.58733,115.825 496.10627,115 C 500.59142,107.86966 501.49098,104.35477 501.82974,92.636345 C 502.01836,86.111335 501.75711,80.357112 501.24918,79.849184 C 500.68451,79.28451 499.29102,79.319054 497.66284,79.938089 C 495.15398,80.891954 495,81.328395 495,87.485505 C 495,93.39719 494.64978,94.51878 491.32818,99.244448 C 489.30868,102.11761 486.84748,106.6814 485.85884,109.38621 C 483.08209,116.98306 476.35333,126 473.46104,126 C 472.65747,126 472,125.31004 472,124.46676 C 472,122.03884 476.8587,113.02473 481.5456,106.75728 C 483.90757,103.59878 486.38043,99.323782 487.04085,97.257279 C 488.74823,93.61221 489.88985,90.546118 490,86.471445 C 490,82.440501 490.64529,80.368686 493.01507,76.790957 C 495.8606,72.495004 495.97089,71.965186 494.97628,67.369512 C 494.39666,64.691281 492.64027,60.025 491.0732,57 C 482.35494,40.170681 481.02795,37.304337 481.01462,35.273053 C 480.99391,32.117978 476.78668,29.508615 474.06706,30.964112 C 471.06216,32.572282 471.43678,36.615985 475.5,46.431685 C 478.32913,53.266145 479,56.191525 479,61.693768 C 479,65.437606 479.63433,71.53251 480.40962,75.237998 C 482.00126,82.84523 481.64442,85.598217 478.97632,86.295941 C 476.70949,86.888731 470.00589,99.882773 469.98469,103.72504 C 469.97627,105.25127 469.57168,107.12807 469.08561,107.89572 C 468.06135,109.51332 464.99483,108.67472 465.01082,106.78138 C 465.04153,103.14601 468.83224,93.403669 475.13426,80.763569 C 477.30595,76.407771 474.13775,52.349126 470.4586,45.257558 C 468.82987,42.118176 468.7777,34.37498 470.37426,32.738095 C 475.34165,27.645227 476.28488,22.448925 473,18.272871 C 471.9,16.874447 471,14.927773 471,13.946929 C 471,9.1100337 467.09605,7.0834897 465.07023,10.868777 C 463.02804,14.684637 465.25438,69.929805 467.60195,73.691644 C 469.48462,76.708518 471.85855,83.80812 471.20363,84.463035 C 469.08855,86.578117 465.44855,83.379497 464.04688,78.1741 C 463.4936,76.119357 462.41136,73.577244 461.64191,72.524958 C 460.31861,70.715236 459.85503,70.992736 453.07442,77.653469 C 446.86689,83.751261 445.87251,85.217711 445.65659,88.592849 C 445.48074,91.341664 444.90511,92.587174 443.70363,92.81856 C 442.45515,93.058995 442,92.459146 442,90.573324 C 442,89.157996 441.57115,88 441.047,88 C 439.6803,88 438.0121,94.698712 438.00558,100.21298 C 437.77828,106.7838 434.75054,112.72438 433.58987,119.13058 C 432.58683,125.99529 423,135.93332 423,130.10841 C 423,128.91997 422.06189,127.98137 420.47634,127.58342 C 417.68438,126.88268 413.97485,119.72711 411.48429,110.23799 C 410.72469,107.34389 409.82842,104.53139 409.49258,103.98799 C 408.55068,102.46397 405.69502,102.80502 400.62712,105.04679 C 395.01659,107.5286 394.70814,109.55507 399.25,114.09421 C 402.50608,117.34835 403.39527,119.97993 405.97601,134 C 406.53283,137.025 406.99102,141.81437 406.99421,144.64304 C 407.00082,150.51662 409.74088,165.01801 411.11827,166.46907 C 425.56246,172.27139 442.52945,171.5563 458,172.93508 C 472.81073,174.30875 474.81554,174.21318 475.95769,172.07906 z M 452.26482,141.76233 C 451.71453,141.06805 450.9653,135.97579 450.59987,130.44619 C 451.44472,122.39049 446.39703,114.60148 446.85667,106.74333 C 449.31715,104.28285 456.01561,112.102 458.36212,120.17369 C 460.36772,127.07272 460.41815,129 458.59307,129 C 457.76406,129 456.47553,126.74078 455.45618,123.5 C 453.78903,118.19969 451.43682,115.64515 452.4636,120.25 C 452.73953,121.4875 453.6481,125.56542 454.48265,129.31205 C 456.35661,137.7251 456.38891,140.43235 454.63268,141.88989 C 453.60454,142.74317 453.01716,142.71152 452.26482,141.76233 z M 404.68864,162.25 C 404.37256,160.1875 403.6663,155.8 403.11919,152.5 C 402.57207,149.2 401.83489,142.675 401.481,138 C 401.12711,133.325 400.40152,129.05 399.86858,128.5 C 399.31973,127.93358 393.82685,127.54301 387.1998,127.59919 C 357.83384,126.83259 329.00274,128.54429 300.5,135.56239 C 288.24999,138.20344 282.09355,141.03938 283.15011,141.38388 C 321.87985,154.01211 363.22055,159.2699 402.38167,165.86962 C 405.16292,165.99546 405.24331,165.86932 404.68864,162.25 z M 282.11516,135.8964 C 291.75107,132.96959 289.75072,131.72495 277.43422,132.98387 L 257.5,134.5 L 263.5,136.69065 C 270.10691,139.10289 271.79573,139.03083 282.11516,135.8964 z M 212,129.87806 C 212,129.43752 210.0875,128.59096 207.75,127.99681 C 198.61137,125.08483 189.42195,122.55885 179.97029,120.82179 C 173.55582,119.79657 166.52328,120.5746 152.5,123.86091 C 135.23847,127.90608 124.17948,129.64164 117.5,129.3537 C 112.30014,129.12954 105.75559,130.79552 106.58216,132.13294 C 139.79372,130.76132 179.42503,135.38507 212,129.87806 z M 290,129.44796 C 303.47881,128.85892 314.60182,127.84386 317.5,126.93838 C 319.15,126.42288 322.44161,125.52567 324.81468,124.94459 C 329.65823,123.75858 330.03763,121.54081 325.4159,121.43024 C 318.73044,121.2703 270.35935,114.40534 252.5,111.08182 C 244.11749,109.52188 233.11649,107.99994 230.23144,108.00106 C 216.07068,111.80096 200.67602,111.74197 187,116.9436 C 200.48064,122.19802 215.11192,123.90818 229,128.05588 L 238.5,131.0451 L 261,130.38856 C 273.375,130.02747 286.425,129.6042 290,129.44796 z M 113,126.95781 L 164.15101,118.30592 C 149.80697,113.92174 134.84664,112.38824 120.55,107.85257 C 118.60601,106.10795 114.34574,107.02968 111.7289,109.76108 C 109.40035,112.19156 103,125.71527 103,128.20493 C 103,128.71634 103.7875,128.89651 104.75,128.6053 C 105.7125,128.31409 109.425,127.57272 113,126.95781 z M 355.91667,124.36768 C 356.14583,124.16545 353.35989,124 349.72568,124 C 346.09148,124 342.87223,124.39772 342.5718,124.88382 C 342.06626,125.7018 354.97037,125.20271 355.91667,124.36768 z M 390.75,120.79206 C 394.1875,120.15462 397,119.10816 397,118.46658 C 395.45317,115.09075 393.18409,109.93978 389.18445,109.48312 C 381.66545,111.89866 373.90419,113.50188 366.41944,116.03063 C 362.78692,117.41171 361,117.2319 361,115.4853 C 361,113.36335 366.01524,110.54971 374.37384,107.98233 C 390.43614,103.04872 389.51184,103.48589 389.34296,100.90238 C 389.25659,99.581072 388.66343,96.475 388.02482,94 C 385.85718,85.598996 388.6196,80 394.93213,80 C 399.4018,80 403.33521,83.45662 407.24971,90.824497 C 408.99428,94.10813 410.63922,95.983128 411.74971,95.953845 C 412.71237,95.92846 418.44974,93.315905 424.49942,90.148168 C 433.65379,85.354746 435.87358,83.727027 437.73297,80.444323 C 440.47459,75.604036 440.59436,71.955572 438.11226,68.890308 C 436.30621,66.659935 435.99246,66.611809 430.86226,67.778248 C 370.39704,79.296917 310.15802,91.971542 249.72562,103.69605 C 247.64971,104.01166 244.96742,104.96827 245.46689,105.05357 C 260.81662,107.67493 313.92717,119.83616 344.70594,118.19818 C 347.76229,118.03553 348.75053,117.45656 351.83809,119.19526 C 356.70822,122.07617 362.55749,120.86642 367.7495,122.41617 C 368.63278,123.29945 382.51437,122.31924 390.75,120.79206 z M 428.06574,117.96482 C 430.52387,115.86983 430.26102,112.34515 431.64157,109.5 C 433.88648,105.36636 435.86734,96.756852 435.28018,93.68534 C 434.73432,90.82983 434.3295,90.866986 426.5,94.491225 C 422.36019,97.108064 415.70922,97.555788 413.02459,101.94245 C 413.06893,104.75106 416.98008,115.32051 418.66331,117.18046 C 420.48067,119.18862 425.06454,119.57101 428.06574,117.96482 z M 82.687096,115.75 C 85.819467,112.28792 93,101.01718 93,99.562611 C 93,98.114451 83.90345,94.012141 80.616647,93.978038 C 76.464298,93.463935 72.870572,91.11313 68.890796,90 C 66.293829,96.784358 69.360014,112.30362 75.888053,116.50036 C 79.465691,118.44477 80.335848,118.34874 82.687096,115.75 z M 218.29337,106.31868 C 218.9535,105.9107 218.19445,105.27667 216.45994,104.78722 C 187.97383,99.562972 159.30607,95.148728 131.46102,86.985179 C 126.57264,85.126622 125.46828,85.739194 122.16688,92.140465 C 120.4251,95.517721 119,99.085789 119,100.06951 C 126.55312,107.92622 165.80479,113.31554 177.5,114.90255 C 191.17875,113.22135 205.03756,110.18936 218.29337,106.31868 z M 405.97664,97.655998 C 405.92922,95.309406 400.41279,86.599205 397.71397,84.609592 C 395.56101,83.022408 394.53846,82.800001 393.21397,83.630839 C 389.55045,85.928915 391.35,102 395.27083,102 C 398.91482,101.1898 403.3964,100.5205 405.97664,97.655998 z M 117.40948,92.532008 C 121.80414,84.884974 121.607,83.405312 115.93308,81.450728 C 108.1138,78.851721 101.18239,88.480691 99,94.926273 C 101.83879,97.244229 106.03804,97.695472 109.5,98.964817 C 112.58396,100.34029 113.21895,99.823858 117.40948,92.532008 z M 39.280503,90.25 C 37.052755,82.928666 36.06828,80.839767 35.121373,81.424988 C 33.830257,82.222941 35.735575,91.050333 37.657245,93.173753 C 40.345548,96.144296 40.816125,95.296711 39.280503,90.25 z M 96.681196,90.25 C 99.035759,86.234134 102.88798,83.244755 105,79.105699 C 105,77.95287 98.440653,75.340048 93.425118,74.495012 L 73.201451,69.947166 L 71.111919,76.134608 C 68.815213,82.935527 69.211207,84.334226 73.756327,85.474978 C 79.009865,87.85699 84.841717,88.962194 90,91.5 C 93.597377,93.556447 94.738481,93.342955 96.681196,90.25 z M 42.863519,78.100777 C 43.488584,76.231204 44,73.052895 44,71.037868 C 44,68.237777 44.731428,66.681858 47.102984,64.437091 C 49.749887,61.931697 52.445489,58.101032 59.741079,46.477347 C 62.431939,42.190141 66,35.003445 66,33.870791 C 67.052474,29.515624 75.174178,22.103454 70.288294,18.257759 C 69.621856,18.038366 68.109799,19.915619 66.928167,22.429431 C 62.531703,30.233425 55.402312,36.050234 50.252864,43.5 C 47.11575,51.385133 44.575237,59.471643 40.923056,67.152426 C 38.366405,72.217122 37.974087,73.901588 38.545887,77.359095 C 39.691223,84.284617 40.736037,84.464095 42.863519,78.100777 z M 66.947419,77.25 C 67.520204,75.1875 67.991356,71.198186 67.994423,68.384859 C 69.782358,57.158256 77.821385,47.748391 81.979186,37 C 83.719333,30.295506 88.995344,24.143364 87.134818,17.055645 C 86.466512,14.82504 85.439636,13 84.85287,13 C 84.026812,16.797784 84.514754,19.248906 80.045846,21.976611 C 76.129483,23.97459 71.891228,29.973596 70.597417,35.350317 C 65.818272,48.942217 53.753673,59.027159 49.625,72.742803 C 49.625,74.327088 51.517115,75.802642 56.25,78.041674 C 64.49064,81.940154 65.669119,81.852939 66.947419,77.25 z M 120,77.666667 C 120,75.78579 119.03767,75.048315 117.40223,75.67589 C 115.27517,76.492119 115.72616,79 118,79 C 119.1,79 120,78.4 120,77.666667 z M 452.25,72.465493 C 456.34244,69.462996 457,68.497797 457,65.493165 C 457,62.973884 456.08468,60.963941 453.70279,58.252881 C 449.63604,53.995545 448.31499,48.047144 444.81496,43.435549 C 442.44744,40.981219 443.64303,37.317192 442.14833,34.591672 C 439.60704,30.582709 438.38457,25.901363 435.8513,21.84563 C 434.83309,20.385726 434,18.559234 434,17.786759 C 434,15.006739 431.45804,12.719848 429.1738,13.444837 C 426.20145,14.388226 426.26875,20.003222 429.35098,28.227171 C 431.72329,34.676577 432.86956,41.415362 435.64851,47.718627 C 438.31687,53.454033 439.06766,59.721077 441.54036,65.532309 C 442.8121,68.300078 444.15957,71.787578 444.53472,73.282309 C 445.41733,76.798914 446.49967,76.684327 452.25,72.465493 z "
     style="fill:black"
     id="path1901"
     sodipodi:nodetypes="csccsssscccsssssssssssssssssssssssssssssssssssssccssssssssssscccsssssssscccsssssssssssssssccsssssssssssssssssccsssssssssccscsssssssssssccccssssccsscccccscsssccssccsssssssssssssssssssssssssssssssccsssssssssccssccssssssccsssccssssssccccsssssssssssssssssssssssssssssssssssssssssssssssssssssssccssssssssccsssssssccsccccsssssscssssssccccccssssccssccsssssssssssssssssssccsssssccssssccsssssscsssscsssccssccssccssccsssssssssccsssssscsccssccsssssssssssc" />
</svg>
